PathFileType	3	(X/Y/Z)	feet_movements_1__fused_aligned.trc
DataRate	CameraRate	NumFrames	NumMarkers	Units	OrigDataRate	OrigDataStartFrame	OrigNumFrames
100.0	100.0	6	19	mm	100.0	1324	1830
Frame#	Time	pelvis			neck			head			hip_left			hip_right			knee_left			knee_right			ankle_left			ankle_right			heel_left			heel_right			toe_left			toe_right			shoulder_left			shoulder_right			elbow_left			elbow_right			wrist_left			wrist_right			
		X1	Y1	Z1	X2	Y2	Z2	X3	Y3	Z3	X4	Y4	Z4	X5	Y5	Z5	X6	Y6	Z6	X7	Y7	Z7	X8	Y8	Z8	X9	Y9	Z9	X10	Y10	Z10	X11	Y11	Z11	X12	Y12	Z12	X13	Y13	Z13	X14	Y14	Z14	X15	Y15	Z15	X16	Y16	Z16	X17	Y17	Z17	X18	Y18	Z18	X19	Y19	Z19	
1324	13.23000	164.767682	941.938443	409.382184	216.013419	1483.621585	504.613748	227.167700	1605.645251	393.366995	96.098501	952.231212	387.103031	233.436875	931.645690	431.661403	80.992358	701.898750	34.498633	240.905600	513.252314	328.939373	2.507165	400.328231	-216.876495	150.026316	133.617517	438.431288	-10.593290	352.019504	-202.726793	129.972836	89.874848	476.044811	36.058773	347.136608	-412.039221	199.292647	64.045426	267.417509	35.909780	1439.752723	492.940689	386.700798	1423.588145	562.071924	-121.696296	1219.456930	392.591037	475.142789	1160.669211	499.174703	-233.930202	1084.869175	212.330574	495.045460	1060.857570	291.054128
1325	13.24000	164.625219	942.044952	409.696303	215.819276	1483.535939	505.287944	226.718741	1605.571945	394.005921	95.975903	952.356520	387.364709	233.274553	931.733393	432.027981	81.103082	702.097321	34.658206	240.557864	513.255073	329.261231	2.482455	400.194769	-216.403338	149.567722	133.586873	438.850356	-10.656553	351.926686	-202.168297	129.520695	89.835724	476.474425	36.014187	346.489330	-411.477285	198.807879	64.016903	267.831162	35.762629	1439.562868	493.577575	386.494383	1423.513801	562.798045	-121.566317	1219.115822	392.932374	474.773880	1160.524849	499.629593	-233.395882	1084.811564	212.059323	494.827400	1061.111623	291.184552
1326	13.25000	164.482757	942.151460	410.010422	215.625134	1483.450293	505.962139	226.269782	1605.498638	394.644847	95.853306	952.481829	387.626387	233.112230	931.821097	432.394559	81.213806	702.295891	34.817779	240.210128	513.257832	329.583089	2.457744	400.061308	-215.930181	149.109128	133.556230	439.269424	-10.719816	351.833868	-201.609801	129.068554	89.796599	476.904040	35.969601	345.842051	-410.915349	198.323111	63.988380	268.244816	35.615478	1439.373014	494.214462	386.287969	1423.439457	563.524165	-121.436339	1218.774714	393.273712	474.404971	1160.380486	500.084482	-232.861562	1084.753952	211.788072	494.609340	1061.365675	291.314977
1327	13.26000	164.340295	942.257968	410.324541	215.430991	1483.364647	506.636335	225.820822	1605.425332	395.283773	95.730708	952.607137	387.888065	232.949908	931.908800	432.761137	81.324530	702.494462	34.977352	239.862392	513.260592	329.904948	2.433034	399.927846	-215.457024	148.650534	133.525586	439.688492	-10.783079	351.741050	-201.051305	128.616412	89.757475	477.333654	35.925015	345.194772	-410.353414	197.838344	63.959856	268.658469	35.468327	1439.183159	494.851349	386.081554	1423.365113	564.250286	-121.306360	1218.433606	393.615049	474.036062	1160.236124	500.539372	-232.327242	1084.696340	211.516821	494.391280	1061.619728	291.445401
1328	13.27000	164.197833	942.364476	410.638659	215.236848	1483.279001	507.310531	225.371863	1605.352025	395.922700	95.608110	952.732445	388.149743	232.787585	931.996503	433.127715	81.435254	702.693033	35.136925	239.514656	513.263351	330.226806	2.408323	399.794385	-214.983867	148.191940	133.494942	440.107559	-10.846342	351.648232	-200.492809	128.164271	89.718351	477.763269	35.880429	344.547494	-409.791478	197.353576	63.931333	269.072122	35.321176	1438.993305	495.488235	385.875139	1423.290769	564.976407	-121.176381	1218.092498	393.956386	473.667153	1160.091762	500.994262	-231.792922	1084.638728	211.245570	494.173220	1061.873781	291.575826
1329	13.28000	164.055370	942.470985	410.952778	215.042705	1483.193355	507.984726	224.922904	1605.278719	396.561626	95.485513	952.857754	388.411420	232.625263	932.084206	433.494293	81.545978	702.891604	35.296497	239.166920	513.266110	330.548664	2.383612	399.660923	-214.510710	147.733346	133.464299	440.526627	-10.909605	351.555415	-199.934313	127.712130	89.679226	478.192883	35.835843	343.900215	-409.229542	196.868808	63.902809	269.485776	35.174025	1438.803450	496.125122	385.668724	1423.216425	565.702528	-121.046402	1217.751389	394.297724	473.298243	1159.947400	501.449152	-231.258602	1084.581116	210.974320	493.955160	1062.127834	291.706250
